<svg width="32" height="32" viewBox="0 0 32 32" fill="none" xmlns="http://www.w3.org/2000/svg">
<path d="M25.6074 19.9476C25.7807 19.5413 25.9298 19.1188 26.047 18.6926L26.0559 18.6588L26.0878 18.6438L31.8165 16.0001L26.0585 13.3426L26.0495 13.3088C25.8151 12.4663 25.4685 11.6526 25.02 10.8913C24.5727 10.1313 24.0287 9.43131 23.4043 8.81131L23.3788 8.78506L23.3827 8.74881L24.1395 2.17131L18.6783 6.12631L18.6427 6.11756C18.2082 6.00631 17.7635 5.92131 17.3201 5.86506L17.2895 5.86131L15.3374 3.56881L13.6415 6.04631L13.6122 6.05256C13.5332 6.07006 13.4542 6.09006 13.3764 6.11006L13.3357 6.12006L6.71115 0.216309L8.61097 8.79506L8.58166 8.82381C8.52433 8.88131 8.46699 8.93881 8.41092 8.99756L8.37779 9.03131L3.92195 7.70256L6.72007 11.3563L6.69841 11.3988C6.38624 12.0063 6.13522 12.6488 5.95301 13.3063L5.94409 13.3401L5.91224 13.3551L0.182205 16.0001L5.94027 18.6576L5.94919 18.6913C6.18364 19.5338 6.53022 20.3476 6.97873 21.1088C7.2616 21.5901 7.58652 22.0513 7.94202 22.4788L7.9726 22.5151L7.95221 22.5576L5.08274 28.7601L10.851 24.8851L10.9351 24.9301L10.9478 24.9863L10.7134 29.5026L13.6517 25.9538L13.6988 25.9638C15.3196 26.3238 17.0219 26.2988 18.6236 25.8888L18.6643 25.8788L25.2876 31.7826L23.3878 23.2038L23.4171 23.1751C23.4744 23.1188 23.5305 23.0613 23.5865 23.0026L23.6069 22.9813L26.642 22.7801L25.5946 19.9751L25.6061 19.9476H25.6074Z" fill="white"/>
<path d="M21.0458 18.23C21.0458 19.7862 20.438 20.8912 19.239 21.5075C18.5191 21.8775 17.622 22.0575 16.4969 22.0575C15.8369 22.0575 15.3145 21.97 14.8074 21.8838C14.1333 21.77 13.4975 21.6637 12.5724 21.755L12.4845 21.7638L12.4514 21.6838C11.8347 20.155 11.6181 18.275 11.8436 16.39L11.8576 16.2763L11.9736 16.2887C11.9901 16.29 12.3877 16.335 12.7215 16.4212L12.8145 16.445L12.8082 16.54C12.6374 18.925 14.3091 19.78 15.0354 20.0375C15.0533 20.0438 15.0647 20.0475 15.0711 20.05C15.2839 20.1375 17.0996 20.6375 17.9788 20.0688C18.2974 19.8625 18.4528 19.5463 18.4566 19.1C18.4515 17.4275 16.6154 16.64 14.8392 15.88C14.1104 15.5675 13.4223 15.2725 12.8629 14.92C12.0245 14.3913 11.5607 13.5513 11.5888 12.6138C11.6181 11.6725 12.1328 10.7912 12.9012 10.3687C13.6517 9.95625 15.2024 9.3675 17.1493 10.065C17.6577 10.2475 17.9775 10.29 18.0999 10.19C18.1814 10.125 18.2031 9.97 18.1648 9.73L18.1483 9.62125L18.2579 9.6C18.2579 9.6 18.4273 9.5675 18.8733 9.485L18.9536 9.47L18.9956 9.53875C19.0058 9.555 20.0022 11.2263 20.3858 13.395L20.4049 13.5013L20.2978 13.5262C20.2978 13.5262 19.9818 13.6 19.6518 13.67L19.5716 13.6862L19.5282 13.6187C18.4018 11.8775 17.0652 11.0312 15.4419 11.0312C14.6889 11.0312 14.1639 11.3175 14.1053 11.76C14.0263 12.3575 14.787 13.1775 16.6639 13.6637C17.9495 14.0162 19.6646 14.7762 20.5438 16.4C21.0725 17.3762 21.0458 18.1938 21.0445 18.2275L21.0458 18.23ZM26.126 13.2887L32.0013 16L26.1234 18.7125C26.0037 19.1425 25.8546 19.5675 25.68 19.9775L26.7529 22.85L23.6451 23.0562C23.5891 23.115 23.533 23.1725 23.4744 23.23L25.4175 32.0013L18.6465 25.965C17.0295 26.3788 15.3221 26.405 13.6861 26.0413L10.6293 29.7337L10.8752 24.9837L10.8599 24.975L4.90181 28.9775L7.88596 22.5263C7.52664 22.095 7.20045 21.6312 6.91503 21.1462C6.46269 20.3775 6.11356 19.5587 5.87656 18.71L0 16L5.87784 13.2875C6.06259 12.6238 6.31488 11.9787 6.62833 11.365L3.71681 7.5625L8.35359 8.945C8.41093 8.88625 8.46826 8.8275 8.5256 8.77L6.58374 0L13.3548 6.03625C13.4338 6.01625 13.5141 5.99625 13.5931 5.97875L15.3298 3.44125L17.329 5.78875C17.7762 5.845 18.2235 5.93 18.6618 6.0425L24.2364 2.005L23.4604 8.75625C24.0898 9.38125 24.6365 10.0862 25.0875 10.8525C25.5386 11.6187 25.889 12.44 26.126 13.2887ZM18.7293 6.3725L20.2431 8.785C20.2431 8.785 20.2443 8.785 20.2456 8.78625L21.0942 7.34375L23.8528 2.6575L18.728 6.36875L18.7306 6.3725H18.7293ZM13.7791 6.245L15.554 7.68125C15.554 7.68125 15.5553 7.68125 15.5566 7.68125L15.4674 6.0175L15.3565 3.94L13.7804 6.2425L13.7791 6.245ZM8.86199 8.8675L11.7557 8.7875L7.08704 0.855L8.86199 8.8675ZM6.9902 11.335L9.0442 11.2225C9.0442 11.2225 9.0442 11.2225 9.0442 11.2212L7.65406 10.2662L4.52592 8.11875L6.98893 11.335H6.9902ZM5.81158 16H7.51007C7.51007 16 7.51007 15.9988 7.51007 15.9975L6.1365 13.505L6.13395 13.5013L0.719917 16H5.81158ZM10.5426 22.3813C10.5426 22.3813 10.5414 22.38 10.5401 22.3787L8.24273 22.4788L5.63319 28.12L9.45066 23.6562L10.5426 22.38V22.3813ZM12.9572 23.775L11.1887 24.81L10.981 28.8288L12.3494 25.33L12.9572 23.775ZM20.2443 23.2125L18.7268 25.6313L24.913 31.1462L20.2443 23.2125ZM26.3235 22.5763L24.5447 21.4438L23.1214 20.5362C23.1214 20.5362 23.1214 20.5363 23.1214 20.5375L23.5024 22.7638L26.3235 22.5763ZM24.1828 15.91C24.1688 14.5375 23.7904 13.1825 23.0858 11.9862C22.3811 10.79 21.3745 9.79125 20.1704 9.0925L20.0201 9.0075C18.6631 8.2575 17.1264 7.90375 15.5731 7.9825L15.5247 7.985C14.2467 8.05625 13.0286 8.41375 11.9086 9.04875C10.879 9.63125 10.0113 10.405 9.32834 11.3488L9.25699 11.4487C8.33065 12.7712 7.83372 14.3137 7.81715 15.9187V16.0888C7.83117 17.4613 8.2096 18.8163 8.91423 20.0125C9.38313 20.81 9.98073 21.515 10.6879 22.1075L10.7491 22.1588C11.4409 22.7263 12.2208 23.175 13.0668 23.4937C15.3846 24.365 17.9444 24.1675 20.0901 22.9513C21.2089 22.3175 22.1339 21.4625 22.8373 20.4112L22.8641 20.3713C23.7101 19.09 24.1663 17.6087 24.1828 16.08V15.91ZM25.866 13.5013L24.4899 15.9975C24.4899 15.9975 24.4899 15.9988 24.4899 16H26.1884H31.2801L25.866 13.5013Z" fill="#F76603"/>
</svg>
